<?xml version="1.0" encoding="UTF-8"?><svg id="art" xmlns="http://www.w3.org/2000/svg" viewBox="0 0 292.5 327.2"><defs><style>.cls-1{fill:#1ed2af;}.cls-1,.cls-2,.cls-3,.cls-4,.cls-5{stroke-width:0px;}.cls-2{fill:#cbc7b8;}.cls-3{fill:#e5e0cf;}.cls-4{fill:#fef9e6;}.cls-5{fill:#00003c;}</style></defs><path class="cls-4" d="m7.05,216.39l129.6,70.15c5.94,3.22,13.26,3.22,19.2,0l129.6-70.15c6.4-3.46,6.4-12.12,0-15.59l-129.6-70.15c-5.94-3.22-13.26-3.22-19.2,0L7.05,200.8c-6.4,3.46-6.4,12.12,0,15.59Z"/><path class="cls-5" d="m146.25,291.19c-3.69,0-7.38-.89-10.67-2.67L5.98,218.37C2.24,216.34,0,212.69,0,208.59c0-4.09,2.23-7.75,5.98-9.77l129.6-70.15c6.58-3.56,14.76-3.56,21.34,0l129.6,70.15c3.74,2.03,5.98,5.68,5.98,9.77,0,4.09-2.24,7.75-5.98,9.77l-129.6,70.15c-3.29,1.78-6.98,2.67-10.67,2.67Zm0-160.69c-2.95,0-5.9.71-8.53,2.14L8.12,202.78c-2.27,1.23-3.62,3.4-3.62,5.82,0,2.41,1.35,4.59,3.62,5.82h0l129.6,70.15c5.26,2.85,11.8,2.85,17.06,0l129.6-70.15c2.27-1.23,3.62-3.4,3.62-5.82,0-2.41-1.35-4.59-3.62-5.82l-129.6-70.15c-2.63-1.42-5.58-2.14-8.53-2.14Z"/><path class="cls-1" d="m136.65,286.54L7.05,216.39c-3.2-1.73-4.8-4.76-4.8-7.78v35.98c0,3.03,1.6,6.07,4.8,7.8l129.6,70.15c2.97,1.61,6.29,2.41,9.6,2.41v-36c-3.31,0-6.63-.8-9.6-2.41Z"/><path class="cls-5" d="m146.25,327.2c-3.74,0-7.43-.93-10.67-2.68L5.98,254.37C2.23,252.34,0,248.68,0,244.58v-35.98c0-1.24,1.01-2.25,2.25-2.25h0c1.24,0,2.25,1.01,2.25,2.25h0c0,2.42,1.36,4.58,3.62,5.81l129.6,70.15c2.59,1.4,5.54,2.14,8.53,2.14,1.24,0,2.25,1.01,2.25,2.25v36c0,1.24-1.01,2.25-2.25,2.25ZM4.5,217.42v27.16c0,2.42,1.35,4.6,3.62,5.83l129.6,70.15c1.94,1.05,4.07,1.73,6.28,2v-31.47c-2.96-.29-5.83-1.17-8.42-2.57h0L5.98,218.37c-.52-.28-1.02-.6-1.48-.94Z"/><path class="cls-5" d="m285.45,216.39l-129.6,70.15c-2.97,1.61-6.29,2.41-9.6,2.41v36c3.31,0,6.63-.8,9.6-2.41l129.6-70.15c3.2-1.73,4.8-4.77,4.8-7.81v-35.98c0,3.03-1.6,6.05-4.8,7.78Z"/><path class="cls-5" d="m146.25,327.2c-1.24,0-2.25-1.01-2.25-2.25v-36c0-1.24,1.01-2.25,2.25-2.25,2.99,0,5.94-.74,8.53-2.14l129.6-70.15c2.26-1.22,3.61-3.39,3.62-5.8h0c0-1.25,1.01-2.26,2.25-2.26h0c1.24,0,2.25,1.01,2.25,2.25v35.98c0,4.1-2.23,7.75-5.98,9.78l-129.6,70.15c-3.24,1.76-6.93,2.68-10.67,2.68Zm2.25-36.11v31.47c2.21-.28,4.34-.95,6.28-2l129.6-70.15c2.27-1.23,3.62-3.41,3.62-5.82v-27.16c-.46.34-.96.66-1.48.94h0l-129.6,70.15c-2.59,1.4-5.46,2.28-8.42,2.57Zm136.95-74.7h0,0Z"/><path class="cls-4" d="m7.05,153.39l129.6,70.15c5.94,3.22,13.26,3.22,19.2,0l129.6-70.15c6.4-3.46,6.4-12.12,0-15.59l-129.6-70.15c-5.94-3.22-13.26-3.22-19.2,0L7.05,137.8c-6.4,3.46-6.4,12.12,0,15.59Z"/><path class="cls-5" d="m146.25,228.19c-3.69,0-7.38-.89-10.67-2.67L5.98,155.37C2.24,153.34,0,149.69,0,145.59c0-4.09,2.23-7.75,5.98-9.77l129.6-70.15c6.58-3.56,14.76-3.56,21.34,0l129.6,70.15c3.74,2.03,5.98,5.68,5.98,9.77,0,4.09-2.24,7.75-5.98,9.77l-129.6,70.15c-3.29,1.78-6.98,2.67-10.67,2.67Zm0-160.69c-2.95,0-5.9.71-8.53,2.14L8.12,139.78c-2.27,1.23-3.62,3.4-3.62,5.82,0,2.41,1.35,4.59,3.62,5.82h0l129.6,70.15c5.26,2.85,11.8,2.85,17.06,0l129.6-70.15c2.27-1.23,3.62-3.4,3.62-5.82,0-2.41-1.35-4.59-3.62-5.82l-129.6-70.15c-2.63-1.42-5.58-2.14-8.53-2.14Z"/><path class="cls-1" d="m136.65,223.54L7.05,153.39c-3.2-1.73-4.8-4.76-4.8-7.78v35.98c0,3.03,1.6,6.07,4.8,7.8l129.6,70.15c2.97,1.61,6.29,2.41,9.6,2.41v-36c-3.31,0-6.63-.8-9.6-2.41Z"/><path class="cls-5" d="m146.25,264.2c-3.74,0-7.43-.93-10.67-2.68L5.98,191.37C2.23,189.34,0,185.68,0,181.58v-35.98c0-1.24,1.01-2.25,2.25-2.25h0c1.24,0,2.25,1.01,2.25,2.25h0c0,2.42,1.36,4.58,3.62,5.81l129.6,70.15c2.59,1.4,5.54,2.14,8.53,2.14,1.24,0,2.25,1.01,2.25,2.25v36c0,1.24-1.01,2.25-2.25,2.25ZM4.5,154.42v27.16c0,2.42,1.35,4.6,3.62,5.83l129.6,70.15c1.94,1.05,4.07,1.73,6.28,2v-31.47c-2.96-.29-5.83-1.17-8.42-2.57h0L5.98,155.37c-.52-.28-1.02-.6-1.48-.94Z"/><path class="cls-5" d="m285.45,153.39l-129.6,70.15c-2.97,1.61-6.29,2.41-9.6,2.41v36c3.31,0,6.63-.8,9.6-2.41l129.6-70.15c3.2-1.73,4.8-4.77,4.8-7.81v-35.98c0,3.03-1.6,6.05-4.8,7.78Z"/><path class="cls-5" d="m146.25,264.2c-1.24,0-2.25-1.01-2.25-2.25v-36c0-1.24,1.01-2.25,2.25-2.25,2.99,0,5.94-.74,8.53-2.14l129.6-70.15c2.26-1.22,3.61-3.39,3.62-5.8h0c0-1.25,1.01-2.26,2.25-2.26h0c1.24,0,2.25,1.01,2.25,2.25v35.98c0,4.1-2.23,7.75-5.98,9.78l-129.6,70.15c-3.24,1.76-6.93,2.68-10.67,2.68Zm2.25-36.11v31.47c2.21-.28,4.34-.95,6.28-2l129.6-70.15c2.27-1.23,3.62-3.41,3.62-5.82v-27.16c-.46.34-.96.66-1.48.94h0l-129.6,70.15c-2.59,1.4-5.46,2.28-8.42,2.57Zm136.95-74.7h0,0Z"/><path class="cls-4" d="m7.05,90.39l129.6,70.15c5.94,3.22,13.26,3.22,19.2,0l129.6-70.15c6.4-3.46,6.4-12.12,0-15.59L155.85,4.65c-5.94-3.22-13.26-3.22-19.2,0L7.05,74.8c-6.4,3.46-6.4,12.12,0,15.59Z"/><path class="cls-5" d="m146.25,165.19c-3.69,0-7.38-.89-10.67-2.67L5.98,92.37C2.24,90.34,0,86.69,0,82.59c0-4.09,2.23-7.75,5.98-9.77L135.58,2.67c6.58-3.56,14.76-3.56,21.34,0l129.6,70.15c3.74,2.03,5.98,5.68,5.98,9.77,0,4.09-2.24,7.75-5.98,9.77l-129.6,70.15c-3.29,1.78-6.98,2.67-10.67,2.67Zm0-160.69c-2.95,0-5.9.71-8.53,2.14L8.12,76.78c-2.27,1.23-3.62,3.4-3.62,5.82,0,2.41,1.35,4.59,3.62,5.82h0l129.6,70.15c5.26,2.85,11.8,2.85,17.06,0l129.6-70.15c2.27-1.23,3.62-3.4,3.62-5.82,0-2.41-1.35-4.59-3.62-5.82L154.78,6.63c-2.63-1.42-5.58-2.14-8.53-2.14Z"/><path class="cls-1" d="m136.65,160.54L7.05,90.39c-3.2-1.73-4.8-4.76-4.8-7.78v35.98c0,3.03,1.6,6.07,4.8,7.8l129.6,70.15c2.97,1.61,6.29,2.41,9.6,2.41v-36c-3.31,0-6.63-.8-9.6-2.41Z"/><path class="cls-5" d="m146.25,201.2c-3.74,0-7.43-.93-10.67-2.68L5.98,128.37C2.23,126.34,0,122.68,0,118.58v-35.98c0-1.24,1.01-2.25,2.25-2.25h0c1.24,0,2.25,1.01,2.25,2.25h0c0,2.42,1.36,4.58,3.62,5.81l129.6,70.15c2.59,1.4,5.54,2.14,8.53,2.14,1.24,0,2.25,1.01,2.25,2.25v36c0,1.24-1.01,2.25-2.25,2.25ZM4.5,91.42v27.16c0,2.42,1.35,4.6,3.62,5.83l129.6,70.15c1.94,1.05,4.07,1.73,6.28,2v-31.47c-2.96-.29-5.83-1.17-8.42-2.57h0L5.98,92.37c-.52-.28-1.02-.6-1.48-.94Z"/><path class="cls-5" d="m285.45,90.39l-129.6,70.15c-2.97,1.61-6.29,2.41-9.6,2.41v36c3.31,0,6.63-.8,9.6-2.41l129.6-70.15c3.2-1.73,4.8-4.77,4.8-7.81v-35.98c0,3.03-1.6,6.05-4.8,7.78Z"/><path class="cls-5" d="m146.25,201.2c-1.24,0-2.25-1.01-2.25-2.25v-36c0-1.24,1.01-2.25,2.25-2.25,2.99,0,5.94-.74,8.53-2.14l129.6-70.15c2.26-1.22,3.61-3.39,3.62-5.8h0c0-1.25,1.01-2.26,2.25-2.26h0c1.24,0,2.25,1.01,2.25,2.25v35.98c0,4.1-2.23,7.75-5.98,9.78l-129.6,70.15c-3.24,1.76-6.93,2.68-10.67,2.68Zm2.25-36.11v31.47c2.21-.28,4.34-.95,6.28-2l129.6-70.15c2.27-1.23,3.62-3.41,3.62-5.82v-27.16c-.46.34-.96.66-1.48.94h0l-129.6,70.15c-2.59,1.4-5.46,2.28-8.42,2.57Zm136.95-74.7h0,0Z"/><path class="cls-3" d="m76.65,86.49l64.8,35.07c2.97,1.61,6.63,1.61,9.6,0l64.8-35.07c3.2-1.73,3.2-6.06,0-7.79l-64.8-35.07c-2.97-1.61-6.63-1.61-9.6,0l-64.8,35.07c-3.2,1.73-3.2,6.06,0,7.79Z"/><path class="cls-5" d="m146.25,125.01c-2.03,0-4.06-.49-5.87-1.47l-64.8-35.07c-2.24-1.21-3.58-3.41-3.58-5.87,0-2.47,1.34-4.66,3.58-5.88l64.8-35.07c3.62-1.96,8.12-1.96,11.74,0l64.8,35.07c2.24,1.21,3.58,3.41,3.58,5.88,0,2.47-1.34,4.66-3.58,5.87l-64.8,35.07c-1.81.98-3.84,1.47-5.87,1.47Zm0-80.35c-1.29,0-2.58.31-3.73.93l-64.8,35.07c-.78.42-1.22,1.12-1.22,1.92s.45,1.5,1.22,1.92h0l64.8,35.07c2.3,1.25,5.16,1.24,7.46,0l64.8-35.07c.78-.42,1.22-1.12,1.22-1.92,0-.8-.44-1.5-1.22-1.92l-64.8-35.07c-1.15-.62-2.44-.93-3.73-.93Z"/><path class="cls-2" d="m107.85,102.68l36,19.49c1.5.81,3.3.81,4.8,0l36-19.49-36-19.49c-1.5-.81-3.3-.81-4.8,0l-36,19.49Z"/><path class="cls-5" d="m146.25,125.03c-1.19,0-2.38-.29-3.47-.88l-36-19.49c-.73-.39-1.18-1.15-1.18-1.98s.45-1.59,1.18-1.98l36-19.49c2.17-1.18,4.77-1.18,6.94,0l36,19.49c.73.39,1.18,1.15,1.18,1.98s-.45,1.59-1.18,1.98l-36,19.49c-1.09.59-2.28.88-3.47.88Zm-33.67-22.35l32.34,17.51c.83.45,1.83.45,2.66,0l32.34-17.51-32.34-17.51c-.83-.45-1.83-.45-2.66,0l-32.34,17.51Z"/></svg>