<?xml version="1.0" encoding="UTF-8"?>
<svg xmlns="http://www.w3.org/2000/svg" xmlns:xlink="http://www.w3.org/1999/xlink" width="128px" height="128px" viewBox="0 0 128 128" version="1.1">
<g id="surface1">
<path style=" stroke:none;fill-rule:evenodd;fill:rgb(69.019608%,74.509804%,77.254902%);fill-opacity:1;" d="M 32 16 L 96 16 C 104.835938 16 112 23.164062 112 32 L 112 96 C 112 104.835938 104.835938 112 96 112 L 32 112 C 23.164062 112 16 104.835938 16 96 L 16 32 C 16 23.164062 23.164062 16 32 16 Z M 32 16 "/>
<path style=" stroke:none;fill-rule:evenodd;fill:rgb(14.901961%,19.607843%,21.960784%);fill-opacity:1;" d="M 32 16 L 96 16 C 104.8125 16 112 23.1875 112 32 L 112 40 L 16 40 L 16 32 C 16 23.1875 23.1875 16 32 16 Z M 32 16 "/>
<path style=" stroke:none;fill-rule:evenodd;fill:rgb(9.803922%,14.509804%,16.862745%);fill-opacity:1;" d="M 85.75 72.375 L 86.8125 72.375 L 86.8125 72.4375 L 86.9375 72.4375 L 86.875 74.5 L 86.9375 76.5625 L 86.8125 76.5625 L 86.8125 76.625 L 85.75 76.625 C 84.5625 76.6875 83.1875 76.875 82.1875 77.5625 C 81.5 78.0625 81.0625 78.6875 80.75 79.4375 C 80.375 80.375 80.9375 83.6875 81.0625 84.75 C 81.75 89.5625 82.875 96.4375 77.75 99.4375 C 76.875 99.9375 75.875 100.3125 74.8125 100.5625 C 73.625 100.8125 72.375 100.9375 71.1875 101 L 70.0625 101.0625 L 69.9375 96.875 L 71.0625 96.8125 C 72 96.8125 72.9375 96.6875 73.8125 96.5 C 74.375 96.375 74.9375 96.1875 75.4375 95.9375 C 75.6875 95.8125 75.875 95.625 76.125 95.375 C 78 93.3125 77.125 88 76.75 85.375 C 76.4375 83.25 75.875 79.9375 76.6875 77.9375 C 77.25 76.625 78.0625 75.5 79.125 74.625 C 78 73.75 77.1875 72.625 76.6875 71.3125 C 75.8125 69.3125 76.4375 66 76.75 63.875 C 76.875 63.0625 77 62.25 77.0625 61.4375 C 77.3125 59.25 77.8125 54.75 75.4375 53.375 C 74.9375 53.0625 74.375 52.875 73.8125 52.8125 C 72.9375 52.625 71.9375 52.5625 71.0625 52.5 L 69.9375 52.4375 L 70.0625 48.25 L 71.1875 48.3125 C 72.375 48.375 73.625 48.4375 74.8125 48.75 C 75.8125 49 76.8125 49.3125 77.75 49.875 C 82.875 52.875 81.75 59.75 81.0625 64.5625 C 80.9375 65.625 80.375 68.9375 80.75 69.875 C 81.0625 70.625 81.5 71.25 82.1875 71.75 C 83.1875 72.4375 84.5 72.6875 85.75 72.6875 Z M 48.875 74.5 C 50 75.375 50.8125 76.5 51.3125 77.8125 C 52.1875 79.8125 51.5625 83.125 51.25 85.25 C 51.125 86.0625 51 86.875 50.9375 87.6875 C 50.6875 89.875 50.1875 94.375 52.5625 95.75 C 53.0625 96.0625 53.625 96.25 54.1875 96.3125 C 55.0625 96.5 56.0625 96.5625 56.9375 96.625 L 58.0625 96.6875 L 57.9375 100.875 L 56.8125 100.8125 C 55.625 100.75 54.375 100.6875 53.1875 100.375 C 52.1875 100.125 51.1875 99.8125 50.25 99.25 C 45.125 96.25 46.25 89.375 46.9375 84.5625 C 47.0625 83.5 47.625 80.1875 47.25 79.25 C 46.9375 78.5 46.5 77.875 45.8125 77.375 C 44.8125 76.6875 43.5 76.4375 42.25 76.4375 L 41.1875 76.4375 L 41.1875 76.375 L 41.0625 76.375 L 41.125 74.3125 L 41.0625 72.25 L 41.1875 72.25 L 41.1875 72.1875 L 42.25 72.1875 C 43.4375 72.125 44.8125 71.9375 45.8125 71.25 C 46.5 70.75 46.9375 70.125 47.25 69.375 C 47.625 68.4375 47.0625 65.125 46.9375 64.0625 C 46.25 59.25 45.125 52.375 50.25 49.375 C 51.125 48.875 52.125 48.5 53.1875 48.25 C 54.375 48 55.625 47.875 56.8125 47.8125 L 57.9375 47.75 L 58.0625 51.9375 L 56.9375 52 C 56 52 55.0625 52.125 54.1875 52.3125 C 53.625 52.4375 53.0625 52.625 52.5625 52.875 C 52.3125 53 52.125 53.1875 51.875 53.4375 C 50 55.5 50.875 60.8125 51.25 63.4375 C 51.5625 65.5625 52.125 68.875 51.3125 70.875 C 50.75 72.1875 49.9375 73.3125 48.875 74.1875 Z M 48.875 74.5 "/>
<path style=" stroke:none;fill-rule:evenodd;fill:rgb(100%,43.529412%,0%);fill-opacity:1;" d="M 90.875 26 L 94.25 26 C 94.941406 26 95.5 26.558594 95.5 27.25 L 95.5 30.625 C 95.5 31.316406 94.941406 31.875 94.25 31.875 L 90.875 31.875 C 90.183594 31.875 89.625 31.316406 89.625 30.625 L 89.625 27.25 C 89.625 26.558594 90.183594 26 90.875 26 Z M 90.875 26 "/>
<path style=" stroke:none;fill-rule:evenodd;fill:rgb(83.529412%,0%,0%);fill-opacity:1;" d="M 98.5 26 L 101.875 26 C 102.566406 26 103.125 26.558594 103.125 27.25 L 103.125 30.625 C 103.125 31.316406 102.566406 31.875 101.875 31.875 L 98.5 31.875 C 97.808594 31.875 97.25 31.316406 97.25 30.625 L 97.25 27.25 C 97.25 26.558594 97.808594 26 98.5 26 Z M 98.5 26 "/>
<path style=" stroke:none;fill-rule:evenodd;fill:rgb(54.509804%,76.470588%,29.019608%);fill-opacity:1;" d="M 83.25 26 L 86.625 26 C 87.316406 26 87.875 26.558594 87.875 27.25 L 87.875 30.625 C 87.875 31.316406 87.316406 31.875 86.625 31.875 L 83.25 31.875 C 82.558594 31.875 82 31.316406 82 30.625 L 82 27.25 C 82 26.558594 82.558594 26 83.25 26 Z M 83.25 26 "/>
</g>
</svg>
